<?xml version="1.0" encoding="UTF-8" standalone="no"?>
<!-- Created with Inkscape (http://www.inkscape.org/) -->

<svg
   xmlns:dc="http://purl.org/dc/elements/1.1/"
   xmlns:cc="http://creativecommons.org/ns#"
   xmlns:rdf="http://www.w3.org/1999/02/22-rdf-syntax-ns#"
   xmlns:svg="http://www.w3.org/2000/svg"
   xmlns="http://www.w3.org/2000/svg"
   xmlns:sodipodi="http://sodipodi.sourceforge.net/DTD/sodipodi-0.dtd"
   xmlns:inkscape="http://www.inkscape.org/namespaces/inkscape"
   version="1.1"
   id="svg2"
   width="1257.84"
   height="202.56"
   viewBox="0 0 1257.84 202.56"
   sodipodi:docname="logo.svg"
   inkscape:version="0.92.4 (f8dce91, 2019-08-02)">
  <metadata
     id="metadata8">
    <rdf:RDF>
      <cc:Work
         rdf:about="">
        <dc:format>image/svg+xml</dc:format>
        <dc:type
           rdf:resource="http://purl.org/dc/dcmitype/StillImage" />
        <dc:title></dc:title>
      </cc:Work>
    </rdf:RDF>
  </metadata>
  <defs
     id="defs6" />
  <sodipodi:namedview
     pagecolor="#ffffff"
     bordercolor="#666666"
     borderopacity="1"
     objecttolerance="10"
     gridtolerance="10"
     guidetolerance="10"
     inkscape:pageopacity="0"
     inkscape:pageshadow="2"
     inkscape:window-width="1920"
     inkscape:window-height="1016"
     id="namedview4"
     showgrid="false"
     inkscape:zoom="0.57240986"
     inkscape:cx="619.95816"
     inkscape:cy="-67.846366"
     inkscape:window-x="0"
     inkscape:window-y="27"
     inkscape:window-maximized="1"
     inkscape:current-layer="svg2" />
  <path
     style="fill:#35d0d4;stroke-width:0.23999999;fill-opacity:1"
     d="m 183.43083,148.78593 c -17.88196,-1.18407 -30.07872,-13.70018 -30.06941,-30.85673 0.005,-8.46852 2.96169,-15.84392 8.60863,-21.471054 6.22384,-6.202013 14.43994,-9.329352 24.50995,-9.329352 17.1392,0 29.77986,9.743803 32.52492,25.071206 0.52966,2.95737 0.52709,8.43081 -0.005,11.52 -2.15911,12.52589 -11.2322,21.66129 -24.19565,24.36181 -1.96783,0.40994 -3.11272,0.5334 -7.48386,0.80706 -0.66,0.0413 -2.41013,-0.005 -3.88917,-0.10294 z m 6.46522,-17.24958 c 2.74918,-0.70312 4.625,-1.7633 6.56385,-3.70977 2.74937,-2.76019 3.93219,-5.69111 3.93725,-9.75616 0.005,-4.17415 -1.1932,-7.18799 -3.95657,-9.95042 -2.7601,-2.75915 -6.00331,-4.05592 -10.08058,-4.03064 -6.53634,0.0405 -11.86443,4.10995 -13.43481,10.26106 -0.4622,1.8104 -0.46406,5.32016 -0.004,7.27204 1.72064,7.29784 9.48133,11.83038 16.97472,9.91389 z M 366.12,148.78075 c -9.00761,-0.57379 -16.92271,-4.07637 -22.32,-9.87704 -6.37682,-6.85342 -9.0029,-16.80664 -7.18488,-27.2319 1.33145,-7.63516 5.88706,-14.755166 12.14078,-18.975038 6.44465,-4.348682 14.97519,-6.371911 23.57158,-5.590582 13.42877,1.220547 23.18071,8.597204 26.86634,20.32247 0.88004,2.79968 1.36546,6.00336 1.53212,10.11134 l 0.14846,3.66 H 378.1572 355.44 l 0.004,0.66 c 0.009,1.45283 0.75907,4.12529 1.68432,6.00239 2.39078,4.85038 6.56112,7.01403 12.92508,6.70575 1.53254,-0.0742 3.30446,-0.30079 3.93761,-0.50344 3.10817,-0.99487 5.80512,-3.20072 6.9413,-5.67736 L 381.4771,127.2 h 9.18139 c 5.04979,0 9.18141,0.0484 9.18141,0.10761 0,0.0592 -0.28281,1.00419 -0.62851,2.1 -1.33651,4.23684 -3.75799,8.15804 -6.90156,11.17599 -4.02393,3.86314 -8.70852,6.26547 -14.61864,7.49666 -1.9745,0.41133 -3.11244,0.53418 -7.49129,0.80872 -0.66,0.0414 -2.496,-0.007 -4.08,-0.10823 z M 380.74934,109.14 c -0.33782,-1.11913 -1.69041,-3.21995 -2.76856,-4.30006 -2.13166,-2.13552 -4.98084,-3.15312 -8.86078,-3.16469 -4.06721,-0.0121 -7.00954,0.98415 -9.40759,3.18543 -1.22014,1.12002 -2.61087,3.14022 -2.94593,4.27932 l -0.15883,0.54 H 368.76 380.91235 Z M 437.64,148.79349 c -9.84286,-0.87133 -18.10951,-7.83021 -20.55002,-17.29905 -0.49378,-1.91581 -0.52448,-2.65758 -0.62691,-15.14954 l -0.10771,-13.1351 -4.83768,-0.0649 L 406.68,103.08 406.6165,95.7 406.553,88.32 h 4.92346 4.92348 v -11.4 -11.4 h 9.6 9.6 v 11.4 11.4 h 6.96 6.96 v 7.44 7.44 h -6.96852 -6.9685 l 0.0685,11.94 c 0.0663,11.55813 0.0847,11.97493 0.57389,13.03219 0.70651,1.52696 1.82445,2.72173 3.15744,3.3744 1.04025,0.50934 1.52076,0.56454 5.63719,0.64759 l 4.5,0.0908 v 7.29199 7.29198 l -0.54,0.35054 c -0.85891,0.55757 -3.91375,1.31352 -5.90832,1.46207 -1.00742,0.075 -2.20968,0.16916 -2.67168,0.20918 -0.462,0.04 -1.704,-0.004 -2.76,-0.0972 z m 123,-0.004 c -15.5275,-1.00446 -26.35126,-9.61362 -29.55698,-23.50944 -0.67052,-2.90651 -0.85193,-9.16212 -0.35844,-12.36 2.01338,-13.047012 10.75548,-22.220515 23.91199,-25.091964 4.69764,-1.025275 10.33447,-1.146658 15.12343,-0.325666 10.5019,1.80038 18.63679,7.860192 22.55974,16.80513 1.81936,4.14844 2.64026,8.39864 2.64026,13.66987 V 121.2 h -22.68283 -22.68283 l 0.14436,1.02 c 0.53688,3.7929 1.91392,6.84535 4.03094,8.93522 2.44956,2.41816 5.38121,3.47644 9.63036,3.47644 5.59992,0 9.85786,-2.19444 11.74217,-6.05166 l 0.67416,-1.38 h 9.09185 c 7.61642,0 9.09182,0.0543 9.09182,0.33472 0,0.1841 -0.21994,1.04683 -0.48876,1.91718 -2.42837,7.86211 -8.64398,14.32998 -16.53058,17.20145 -2.82352,1.02803 -6.67164,1.87179 -9.26066,2.03056 -1.188,0.0729 -2.646,0.16657 -3.24,0.20827 -0.594,0.0417 -2.322,-0.005 -3.84,-0.10274 z m 14.27162,-40.0065 c -0.97022,-2.3221 -3.16116,-4.80749 -5.11788,-5.80573 -2.58314,-1.31782 -7.41614,-1.72725 -10.56664,-0.89515 -3.351,0.88505 -6.18221,3.13716 -7.68411,6.11239 l -0.7499,1.48554 h 12.24667 12.24667 z m 56.4985,39.99071 c -12.53777,-0.70996 -21.13346,-6.80711 -23.92414,-16.97004 l -0.63804,-2.32362 -0.0728,-20.58 -0.0728,-20.579997 h 9.48888 9.48886 l 0.007,16.859997 c 0.004,9.31774 0.11038,17.65321 0.23758,18.63315 0.42952,3.30889 2.30649,6.08344 5.00467,7.39791 1.19721,0.58324 1.62249,0.65784 3.75033,0.65784 2.11736,0 2.55545,-0.076 3.72,-0.6451 2.18626,-1.06845 3.74724,-2.84425 4.69736,-5.3438 0.43113,-1.13422 0.46008,-2.19651 0.52797,-19.38 l 0.0718,-18.179997 h 9.47141 9.47143 l -0.002,18.899997 c 0,10.395 -0.10452,19.79328 -0.23006,20.88506 -1.62838,14.16197 -12.92186,21.69216 -30.99799,20.6686 z m 63.85505,0.0106 c -9.71928,-0.68512 -18.33831,-5.75053 -21.91939,-12.88203 l -0.63159,-1.25775 6.99437,-3.49879 c 3.84689,-1.92434 7.06946,-3.41035 7.16124,-3.30225 0.0918,0.10809 0.57338,0.76431 1.07023,1.45825 2.1211,2.9625 5.00587,4.41618 8.76377,4.41618 3.2333,0 5.0562,-1.19271 5.0562,-3.30823 0,-1.97323 -0.84019,-2.92204 -3.96,-4.4719 -0.924,-0.45903 -3.03,-1.34144 -4.68,-1.96092 -7.66042,-2.87603 -11.89939,-5.63683 -14.5009,-9.44426 -3.68671,-5.39569 -3.31732,-12.93776 0.92484,-18.882618 2.66124,-3.729384 6.89357,-6.428366 12.30418,-7.846464 1.83341,-0.480523 2.68152,-0.552897 6.43188,-0.548868 3.71777,0.004 4.63786,0.08328 6.6,0.568731 4.92533,1.218557 9.08038,3.294317 12.46078,6.225108 l 1.0608,0.919689 -4.74036,5.315922 c -2.6072,2.92376 -4.79667,5.31592 -4.86552,5.31592 -0.0688,0 -0.63584,-0.45913 -1.25998,-1.02028 -2.92982,-2.63418 -7.96822,-3.85168 -10.737,-2.59456 -1.65938,0.75342 -2.35375,2.43412 -1.63308,3.95285 0.5417,1.14154 1.92802,1.97292 6.36014,3.81425 8.5411,3.54837 12.43023,6.16091 15.08892,10.13599 3.15936,4.72364 3.76812,10.93264 1.64024,16.72972 -2.46557,6.71708 -9.16138,11.47153 -16.99316,12.06621 -0.97999,0.0744 -2.15978,0.16758 -2.62178,0.20704 -0.462,0.0395 -1.98067,-0.009 -3.37483,-0.10694 z m 95.89483,-0.009 c -6.85934,-0.44514 -14.02589,-2.99195 -19.73138,-7.01205 -2.43262,-1.71401 -6.66783,-5.84288 -8.23188,-8.02516 -1.51292,-2.11094 -2.89796,-4.43399 -2.80676,-4.70761 0.0968,-0.29032 15.54656,-9.96553 15.93596,-9.97967 0.15724,-0.006 0.62061,0.61758 1.02969,1.38508 2.29548,4.30678 6.92959,8.00311 11.64437,9.28794 2.17378,0.59238 7.06123,0.73482 9.06214,0.26412 3.18338,-0.74888 5.25115,-2.18984 6.34824,-4.42393 0.55456,-1.12932 0.66871,-1.67284 0.66436,-3.16359 -0.006,-2.19718 -0.35121,-3.2488 -1.57128,-4.7923 -1.93471,-2.44759 -4.87783,-3.97508 -14.08461,-7.30998 -11.5032,-4.1667 -15.50213,-6.34778 -19.51318,-10.642758 -2.95646,-3.165741 -4.77619,-7.004016 -5.51417,-11.630786 -0.44133,-2.766883 -0.1818,-8.632769 0.49635,-11.217871 1.86811,-7.121503 6.19889,-12.481087 12.83661,-15.886071 7.90193,-4.053492 17.66019,-4.596948 26.71685,-1.487911 1.9387,0.66553 5.91334,2.574711 7.57366,3.637939 1.88553,1.207445 4.83585,3.617374 6.4998,5.309278 l 1.67479,1.702908 -0.83479,0.808118 c -0.45912,0.444464 -3.4051,3.2576 -6.54663,6.251415 l -5.71185,5.443296 -1.84815,-1.73203 c -5.5247,-5.177606 -11.72623,-7.104086 -16.78087,-5.212908 -0.74155,0.277457 -1.80384,0.924365 -2.36059,1.437574 -2.79696,2.578149 -2.81105,7.561716 -0.0292,10.343532 2.04569,2.04569 4.70443,3.393921 11.44255,5.802417 8.9639,3.204092 12.5525,4.812171 16.30879,7.308088 7.63455,5.07287 11.4235,13.03189 10.98175,23.06805 -0.70051,15.91509 -14.71992,26.40337 -33.65054,25.17487 z m 71.64,-0.006 c -13.94126,-0.88154 -24.81775,-8.85748 -28.63382,-20.99772 -0.93783,-2.98351 -1.36618,-6.06323 -1.36618,-9.8222 0,-5.44024 0.89249,-9.46773 3.0823,-13.90914 4.19752,-8.513578 11.64859,-13.982177 22.1177,-16.232998 2.16065,-0.464527 3.25584,-0.543369 7.68,-0.552868 4.44192,-0.0095 5.535,0.06472 7.85467,0.53362 10.30495,2.083047 17.83452,7.542485 22.08389,16.012246 1.00171,1.99663 2.33844,5.8663 2.60736,7.54805 l 0.15542,0.97195 -9.81067,-4.8e-4 -9.81067,-4.8e-4 -0.71878,-1.37943 c -1.08223,-2.07692 -3.27518,-4.13521 -5.66937,-5.32124 -8.1337,-4.02925 -17.53507,-0.0387 -20.02935,8.50181 -0.5153,1.76439 -0.58255,5.46588 -0.13298,7.32 0.93528,3.85745 3.61342,7.27143 7.02146,8.95072 4.24913,2.09373 8.7938,2.10856 13.14351,0.0429 2.18193,-1.03619 4.87241,-3.6371 5.76653,-5.57459 l 0.58104,-1.25901 h 9.79896 c 8.77956,0 9.79898,0.0395 9.79898,0.38001 0,0.73826 -0.98899,4.2405 -1.71007,6.0557 -5.03767,12.68157 -17.78835,19.74645 -33.80993,18.73336 z m 110.64,-0.003 c -13.44173,-0.80838 -23.93359,-7.95255 -28.14643,-19.16563 -2.44181,-6.49915 -2.59032,-15.31565 -0.37198,-22.08 2.89661,-8.83253 9.69055,-15.584806 18.68813,-18.573509 10.84949,-3.603845 23.09887,-2.296759 31.62187,3.374251 C 1003.6087,97.894658 1008,106.95692 1008,118.67054 V 121.2 H 985.29235 962.5847 l 0.17151,1.38 c 0.22677,1.82474 1.15749,4.70178 1.9812,6.12424 0.88531,1.52887 2.93179,3.56297 4.37481,4.34836 3.76028,2.0466 10.1516,2.12497 14.22675,0.17446 1.88832,-0.90381 3.83961,-2.82864 4.68986,-4.62625 l 0.65117,-1.37671 9.18,-0.0121 c 6.5362,-0.009 9.18,0.0641 9.18,0.25255 0,0.50921 -1.4345,4.54071 -2.0611,5.7923 -5.42102,10.82909 -16.74679,16.39836 -31.5389,15.50875 z m 14.01437,-40.78275 c -1.23197,-2.34444 -2.63914,-3.82941 -4.58587,-4.83938 -2.17611,-1.12898 -3.79323,-1.48616 -6.6685,-1.4729 -4.12733,0.019 -7.14612,1.11326 -9.45456,3.42706 -1.10623,1.10879 -2.90544,3.85577 -2.90544,4.43592 0,0.0805 5.51388,0.14641 12.25308,0.14641 h 12.2531 z M 1120.32,148.76413 c -17.5598,-1.07982 -29.9887,-13.74561 -29.9986,-30.57043 -0.011,-18.922541 14.4229,-31.795634 34.7644,-31.00501 5.9431,0.230993 10.1265,1.22761 14.7942,3.5244 8.2782,4.073422 13.7631,11.04572 15.8174,20.10691 l 0.34,1.5 -9.8787,-9.6e-4 -9.8787,-9.6e-4 -0.8032,-1.55325 c -2.7553,-5.32862 -10.211,-8.05984 -16.4768,-6.03591 -5.8495,1.88945 -9.48,6.92707 -9.48,13.1543 0,2.54827 0.3198,4.15221 1.2312,6.1745 1.7273,3.83292 5.2768,6.60829 9.7141,7.59549 5.9308,1.31948 12.684,-1.62757 15.1143,-6.59581 l 0.7004,-1.43172 9.9046,-0.0129 9.9045,-0.0129 -0.1453,0.66 c -0.8943,4.06061 -2.703,8.45141 -4.6841,11.37124 -2.4835,3.66028 -7.0184,7.55288 -11.3267,9.72248 -5.2634,2.65062 -12.2403,3.8638 -19.613,3.41042 z m 73.56,0.0119 c -14.8117,-0.96805 -25.7472,-9.4118 -29.0496,-22.43032 -1.9719,-7.77343 -1.0531,-16.41598 2.4704,-23.23827 5.6983,-11.032924 18.2255,-17.213519 32.4704,-16.020021 13.6212,1.141248 23.4622,8.505459 27.1826,20.341281 0.8801,2.79968 1.3655,6.00336 1.5321,10.11134 l 0.1485,3.66 H 1205.9172 1183.2 v 0.66 c 0.01,1.45284 0.7591,4.1253 1.6843,6.00239 2.3908,4.85039 6.5611,7.01404 12.9251,6.70576 1.5325,-0.0742 3.3044,-0.30079 3.9376,-0.50345 3.1082,-0.99486 5.8051,-3.20071 6.9413,-5.67735 l 0.5447,-1.18735 h 9.1814 c 5.0498,0 9.1814,0.0484 9.1814,0.10762 0,0.0592 -0.2828,1.00418 -0.6285,2.1 -1.3365,4.23683 -3.758,8.15803 -6.9016,11.17598 -4.0239,3.86315 -8.7085,6.26547 -14.6186,7.49667 -1.9745,0.41133 -3.1124,0.53417 -7.4913,0.80871 -0.66,0.0414 -2.496,-0.009 -4.08,-0.11299 z M 1208.509,109.14 c -0.3625,-1.19838 -1.4953,-2.98285 -2.64,-4.1585 -2.197,-2.25642 -5.0191,-3.29441 -8.989,-3.30625 -4.0111,-0.012 -6.9521,0.96543 -9.3252,3.09906 -1.1682,1.05029 -2.6778,3.23036 -3.0229,4.36569 l -0.1643,0.54 h 12.1524 12.1524 z M 34.960001,147.68 C 34.872,147.592 34.8,127.504 34.8,103.04 V 58.56 l 19.5,7.2e-4 c 20.590296,7.2e-4 22.211134,0.07046 25.86,1.112856 7.225603,2.064178 13.517914,7.473014 16.696176,14.35195 2.35763,5.102781 3.093446,11.626164 1.927445,17.08776 C 96.580795,101.4314 88.881638,108.95142 78.316166,111.10452 76.073945,111.56141 75.051214,111.6 65.182301,111.6 H 54.48 v 18.12 18.12 h -9.679999 c -5.324002,0 -9.752002,-0.072 -9.84,-0.16 z M 73.474718,94.808609 C 77.333683,93.615991 79.86455,90.810701 80.357074,87.18 80.770826,84.129965 79.986139,81.459883 78.075866,79.417646 76.737598,77.986927 75.4272,77.171422 73.371408,76.489894 72.002796,76.036176 71.163679,75.987204 63.18,75.895114 L 54.48,75.79476 V 85.53738 95.28 h 8.734718 c 8.00383,0 8.862351,-0.03944 10.26,-0.471391 z M 108.64,147.68 c -0.088,-0.088 -0.16,-13.48 -0.16,-29.76 v -29.6 h 9.6 9.6 v 4.013402 c 0,3.840159 0.0175,3.987785 0.40502,3.42 2.5327,-3.7107 7.06261,-6.937884 11.35498,-8.089483 1.88296,-0.505178 8.10724,-0.588144 9.18,-0.122364 l 0.66,0.286565 v 8.245939 c 0,4.535271 -0.0593,8.305261 -0.13183,8.377771 -0.0725,0.0725 -0.58551,0.022 -1.14,-0.11234 -0.55449,-0.1343 -2.46617,-0.24457 -4.24817,-0.24505 -2.54717,-7.2e-4 -3.64032,0.10743 -5.11212,0.50562 -4.09522,1.10796 -7.36486,3.58324 -9.08784,6.87994 -1.78404,3.41354 -1.72338,2.73081 -1.81773,20.46 l -0.0846,15.9 h -9.42885 c -5.18587,0 -9.50085,-0.072 -9.58885,-0.16 z m 124.32275,0.003 C 232.87324,147.59324 232.8,134.2 232.8,117.92 v -29.6 h 9.6 9.6 v 3.446153 3.446155 l 2.22,-2.207945 c 1.30286,-1.295796 2.91406,-2.615261 3.9,-3.193891 6.08832,-3.573062 13.67962,-3.579053 19.74396,-0.01558 1.76899,1.039483 5.25473,4.49933 6.29806,6.251285 l 0.8136,1.366178 0.99868,-1.486178 c 1.31254,-1.953207 4.19888,-4.668394 6.2575,-5.886449 1.95391,-1.156092 5.2693,-2.307478 7.77029,-2.698514 2.27009,-0.354936 7.25777,-0.149314 9.35791,0.385792 2.21098,0.563345 5.62601,2.275716 7.35221,3.686552 3.59472,2.938 6.24127,8.136952 7.03041,13.810682 0.16664,1.19802 0.25738,9.0383 0.25738,22.23592 v 20.38541 l -9.42,-0.0628 -9.42,-0.0628 -0.12,-18.6 -0.12,-18.6 -0.64322,-1.37234 c -1.75078,-3.73542 -5.63134,-5.77401 -9.48082,-4.9806 -0.76778,0.15825 -1.70532,0.44656 -2.08342,0.64069 -1.15706,0.59409 -2.80437,2.27157 -3.41601,3.47858 C 287.9935,110.85773 288,110.74876 288,130.01318 v 17.83233 l -9.54,-0.0628 -9.54,-0.0627 -0.12,-18.6 c -0.13118,-20.33252 -0.0417,-19.13366 -1.60574,-21.51836 -1.57121,-2.39562 -3.79925,-3.53077 -6.91426,-3.52271 -2.89325,0.007 -4.92374,1.03987 -6.46051,3.28477 -1.79578,2.62328 -1.68588,1.30212 -1.81949,21.8763 l -0.12,18.48 -9.37726,0.0627 c -5.15748,0.0345 -9.45048,-0.0105 -9.53999,-0.1 z M 461.28,96.96 V 46.08 h 9.48 9.48 v 24.399374 24.399375 l 1.62446,-1.568295 c 8.67394,-8.373967 22.01799,-8.22142 30.22028,0.345473 2.93916,3.069807 4.95268,6.967173 5.8608,11.344073 0.41685,2.00918 0.44836,3.58021 0.45132,22.5 l 0.003,20.34 h -9.48 -9.48 v -17.47592 c 0,-11.5492 -0.0885,-17.95888 -0.26088,-18.9 -0.55735,-3.0426 -2.74954,-5.79839 -5.45074,-6.85206 -1.76232,-0.68744 -4.65076,-0.74237 -6.46802,-0.12301 -1.84186,0.62776 -3.89827,2.24794 -5.05853,3.98544 -1.90658,2.85511 -1.81361,1.79812 -1.9055,21.66555 l -0.0819,17.7 H 470.74723 461.28 Z m 449.44001,50.72 C 910.632,147.592 910.56,134.2 910.56,117.92 v -29.6 h 9.48 9.48 v 29.76 29.76 h -9.31999 c -5.12602,0 -9.39202,-0.072 -9.48,-0.16 z M 1020.96,118.08275 V 88.32 h 9.6 9.6 v 3.420922 3.420921 l 1.8759,-1.816358 c 4.517,-4.373722 9.8864,-6.453881 15.8787,-6.151567 2.9957,0.151132 5.0936,0.654163 7.5792,1.817332 5.7345,2.683476 10.1748,8.129945 11.848,14.53271 0.8949,3.42455 1.0018,6.383 0.9284,25.69604 l -0.07,18.48 h -9.48 -9.48 l -0.12,-18.6 -0.12,-18.6 -0.6301,-1.32 c -1.3441,-2.8158 -3.7092,-4.53888 -6.9722,-5.07959 -4.1495,-0.68758 -8.6337,1.58521 -10.4601,5.30162 l -0.6576,1.33797 -0.12,18.48 -0.12,18.48 -9.54,0.0627 -9.54,0.0628 z M 917.88,78.141353 c -3.0505,-0.757095 -5.69827,-2.914899 -7.10225,-5.787958 -0.78007,-1.596271 -0.81775,-1.795644 -0.81775,-4.325841 0,-2.57725 0.0253,-2.703634 0.89232,-4.457914 1.70326,-3.446306 4.89286,-5.653812 8.52787,-5.902075 5.62275,-0.384024 10.28695,3.379644 11.15741,9.003194 0.49711,3.21163 -0.822,6.66355 -3.4745,9.092191 -2.50601,2.294542 -5.93876,3.183612 -9.1831,2.378403 z"
     id="path829"
     inkscape:connector-curvature="0" />
  <path
     style="fill:#000000;stroke-width:0.23999999"
     d=""
     id="path825"
     inkscape:connector-curvature="0" />
  <path
     style="fill:#000000;stroke-width:0.23999999"
     d=""
     id="path823"
     inkscape:connector-curvature="0" />
  <path
     style="fill:#000000;stroke-width:0.23999999"
     d=""
     id="path821"
     inkscape:connector-curvature="0" />
</svg>
